# Blender v2.79 (sub 0) OBJ File: 'DropPod.blend'
# www.blender.org
mtllib DropPod.mtl
o Cube
v 0.790561 -1.000000 -0.790561
v 0.790561 -1.000000 0.790561
v -0.790561 -1.000000 0.790561
v -0.790561 -1.000000 -0.790562
v 1.000000 -0.433871 -0.999999
v 0.999999 -0.433871 1.000001
v -1.000000 -0.433871 1.000000
v -1.000000 -0.433871 -1.000000
v 0.566722 1.488924 -0.566722
v 0.566722 1.488924 0.566723
v -0.566722 1.488924 0.566722
v -0.566722 1.488924 -0.566722
v 0.186624 2.244694 -0.186623
v 0.186623 2.244694 0.186624
v -0.186624 2.244694 0.186624
v -0.186624 2.244694 -0.186623
vt 0.250000 0.375000
vt 0.031250 0.375000
vt 0.031250 0.156250
vt 0.250000 0.156250
vt 0.500000 0.906250
vt 0.750000 0.906250
vt 0.750000 0.593750
vt 0.500000 0.593750
vt 0.250000 1.000000
vt 0.250000 0.906250
vt 0.000000 0.906250
vt 0.000000 1.000000
vt 1.000000 1.000000
vt 1.000000 0.906250
vt 0.750000 1.000000
vt 0.500000 1.000000
vt 0.250000 0.593750
vt 1.000000 0.593750
vt 0.000000 0.593750
vt 0.750000 0.500000
vt 0.500000 0.500000
vt 1.000000 0.500000
vt 0.250000 0.500000
vt 0.000000 0.500000
vt 0.250000 0.468750
vt 0.187500 0.468750
vt 0.187500 0.406250
vt 0.250000 0.406250
vn 0.0000 -1.0000 -0.0000
vn -0.9755 0.2198 -0.0000
vn 0.9379 -0.3470 0.0000
vn -0.0000 -0.3470 0.9379
vn -0.9379 -0.3470 -0.0000
vn 0.0000 -0.3470 -0.9379
vn 0.0000 0.2198 -0.9755
vn -0.0000 0.2198 0.9755
vn 0.9755 0.2198 0.0000
vn -0.8934 0.4493 -0.0000
vn -0.0000 0.4493 0.8934
vn 0.8934 0.4493 0.0000
vn 0.0000 1.0000 0.0000
vn 0.0000 0.4493 -0.8934
usemtl Material
s off
f 1/1/1 2/2/1 3/3/1 4/4/1
f 8/5/2 7/6/2 11/7/2 12/8/2
f 1/9/3 5/10/3 6/11/3 2/12/3
f 2/13/4 6/14/4 7/6/4 3/15/4
f 3/15/5 7/6/5 8/5/5 4/16/5
f 5/10/6 1/9/6 4/16/6 8/5/6
f 5/10/7 8/5/7 12/8/7 9/17/7
f 7/6/8 6/14/8 10/18/8 11/7/8
f 6/11/9 5/10/9 9/17/9 10/19/9
f 12/8/10 11/7/10 15/20/10 16/21/10
f 11/7/11 10/18/11 14/22/11 15/20/11
f 10/19/12 9/17/12 13/23/12 14/24/12
f 13/25/13 16/26/13 15/27/13 14/28/13
f 12/8/14 16/21/14 13/23/14 9/17/14
